# xmcd CD database file
#
# Track frame offsets:
#	150
#	14700
#	36430
#	56795
#	70195
#	86482
#	102531
#	127933
#	145298
#	159093
#	183863
#
# Disc length: 2703 seconds
#
# Revision: 0
# Processed by: cddbd v1.4PL0 Copyright (c) Steve Scherf et al.
# Submitted via: CDex 1.40Release
#
DISCID=950a8d0b
DTITLE=Ken Overcast - Montana Cowboy
DYEAR=2000
DGENRE=Country
TTITLE0=Cold, Broke And Hungry
TTITLE1=Ride Cowboy Ride
TTITLE2=Blizzard
TTITLE3=Workin' Cowboy
TTITLE4=Montana Lullaby
TTITLE5=Back In The Saddle
TTITLE6=What's It Take To Make A Cowboy Cry
TTITLE7=When The Works All Done This Fall
TTITLE8=Cattle Call
TTITLE9=Mr. Shorty
TTITLE10=Ridin' Down The Canyon
EXTD=YEAR: 2000 ID3G: 2
EXTT0=
EXTT1=
EXTT2=
EXTT3=
EXTT4=
EXTT5=
EXTT6=
EXTT7=
EXTT8=
EXTT9=
EXTT10=
PLAYORDER=
